<?xml version="1.0" encoding="utf-8"?>
<!-- Generator: Adobe Illustrator 26.3.1, SVG Export Plug-In . SVG Version: 6.00 Build 0)  -->
<svg version="1.1" id="图层_1" xmlns="http://www.w3.org/2000/svg" xmlns:xlink="http://www.w3.org/1999/xlink" x="0px" y="0px"
	 viewBox="0 0 680 521.3" style="enable-background:new 0 0 680 521.3;" xml:space="preserve">
<g>
	<path d="M10.2,156.9l44.7-24.6v109.3h117.6c-0.8,4.5-1.7,11.1-1.7,22.6c0,9.6,0.7,15.8,1.5,21.7H54.9v109.3l-44.7-24.1V156.9z"/>
	<path d="M392.4,132.3c0,0-15.8-0.5-57.4,0c-63.2,0-124.7,57.6-124.7,132.2c0,74.7,65.3,130.8,124.7,130.8h57.4v-45.1
		c0,0-18.6,0-50.4,0c-29.8-0.7-88.2-21.7-88.2-85.6c0-59.3,45.8-87.2,89.5-88.7c14-0.5,49,0,49,0V132.3z"/>
	<path d="M203.9,403.9V364c0,0,9.2,13.1,21.9,24.8c11,10.2,22.9,18.5,22.9,18.5v94.9l-44.8-22.8V403.9z"/>
	<path d="M203.9,122.6v39.9c0,0,9.2-13.1,21.9-24.8c11-10.2,22.9-18.5,22.9-18.5V24.2L203.9,47V122.6z"/>
	<path d="M429.7,394.8V132.3l121.9,65.6l120.5-65.6v238l-44.6,24.5V206.3l-54.4,35.1v183.4l-44.6,24.5V241.4l-54.4-35.1v272.4
		l-44.6,24.5V394.8z"/>
	<path d="M570.6,73.3c5-1.4,9.4-5.5,10.7-11c2.1-9-4.5-17.4-14.8-19.9l-1.2-0.3l2.7-11.6l-7.8-1.8l-2.8,11.6l-3.7-0.9l2.8-11.6
		l-7.8-1.8l-2.8,11.6l-18.1-4.3l-2.9,12.2l7,1.7l-8.5,35.8l-7-1.7l-2.9,12.2l18.2,4.3L529,109l7.8,1.8l2.7-11.2l3.7,0.9l-2.7,11.2
		l7.8,1.8l2.7-11.2l3.4,0.8c11.3,2.7,21.2-2.1,23.5-11.7C579.5,84.4,576.5,77,570.6,73.3z M557.3,53.2l2.3,0.6
		c3.6,0.9,5.9,3.9,5.1,7.2c-0.8,3.2-4.3,5-7.8,4.2l-12.7-3l2.7-11.3L557.3,53.2L557.3,53.2z M553.4,90.1l-15-3.6l3.1-13l15,3.6
		c4.2,1,6.8,4.6,5.9,8.3C561.5,89.1,557.6,91.1,553.4,90.1z"/>
	<path d="M549.5,8.5c-34.2,0-62,27.7-62,62c0,34.2,27.7,62,62,62s62-27.7,62-62C611.5,36.3,583.7,8.5,549.5,8.5z M549.5,125.4
		c-30.3,0-54.9-24.6-54.9-54.9c0-30.3,24.6-54.9,54.9-54.9c30.3,0,54.9,24.6,54.9,54.9C604.4,100.8,579.8,125.4,549.5,125.4z"/>
</g>
</svg>
