<?xml version="1.0" encoding="UTF-8" standalone="no"?>
<svg
   xmlns:dc="http://purl.org/dc/elements/1.1/"
   xmlns:cc="http://creativecommons.org/ns#"
   xmlns:rdf="http://www.w3.org/1999/02/22-rdf-syntax-ns#"
   xmlns:svg="http://www.w3.org/2000/svg"
   xmlns="http://www.w3.org/2000/svg"
   viewBox="0 0 622.66669 140"
   height="140"
   width="622.66669"
   xml:space="preserve"
   id="svg2"
   version="1.1"><metadata
     id="metadata8"><rdf:RDF><cc:Work
         rdf:about=""><dc:format>image/svg+xml</dc:format><dc:type
           rdf:resource="http://purl.org/dc/dcmitype/StillImage" /></cc:Work></rdf:RDF></metadata><defs
     id="defs6" /><g
     transform="matrix(1.3333333,0,0,-1.3333333,0,140)"
     id="g10"><g
       transform="scale(0.1)"
       id="g12"><path
         id="path14"
         style="fill:#24265d;fill-opacity:1;fill-rule:nonzero;stroke:none"
         d="m 579.742,698.164 h 77.43 L 758.223,549.688 v 148.476 h 78.168 V 429.797 H 758.223 L 657.719,577.148 V 429.797 h -77.977 v 268.367" /><path
         id="path16"
         style="fill:#24265d;fill-opacity:1;fill-rule:nonzero;stroke:none"
         d="m 951.02,698.164 h 83.11 V 429.797 h -83.11 v 268.367" /><path
         id="path18"
         style="fill:#24265d;fill-opacity:1;fill-rule:nonzero;stroke:none"
         d="m 1131.01,698.164 h 252.07 v -66.269 h -84.57 V 429.797 h -82.93 v 202.098 h -84.57 v 66.269" /><path
         id="path20"
         style="fill:#24265d;fill-opacity:1;fill-rule:nonzero;stroke:none"
         d="m 1480.14,698.164 h 83.11 V 429.797 h -83.11 v 268.367" /><path
         id="path22"
         style="fill:#24265d;fill-opacity:1;fill-rule:nonzero;stroke:none"
         d="m 1826.77,532.117 -29.63,96.477 -29.31,-96.477 z m 17.2,-58.015 h -94.15 l -13.08,-44.305 h -84.67 l 100.86,268.367 h 90.46 l 100.84,-268.367 h -86.83 l -13.43,44.305" /><path
         id="path24"
         style="fill:#24265d;fill-opacity:1;fill-rule:nonzero;stroke:none"
         d="m 2026.83,698.164 h 82.93 V 495.879 h 129.42 v -66.082 h -212.35 v 268.367" /><path
         id="path26"
         style="fill:#24265d;fill-opacity:1;fill-rule:nonzero;stroke:none"
         d="m 2686.53,523.887 35.52,-8.965 c -7.45,-29.18 -20.84,-51.414 -40.18,-66.731 -19.34,-15.32 -42.99,-22.976 -70.94,-22.976 -28.92,0 -52.44,5.89 -70.57,17.668 -18.12,11.785 -31.91,28.836 -41.37,51.16 -9.45,22.344 -14.19,46.316 -14.19,71.953 0,27.949 5.34,52.324 16.02,73.125 10.68,20.801 25.87,36.609 45.59,47.422 19.7,10.793 41.39,16.191 65.07,16.191 26.85,0 49.43,-6.836 67.73,-20.507 18.31,-13.664 31.05,-32.879 38.26,-57.657 l -34.96,-8.242 c -6.23,19.531 -15.25,33.75 -27.09,42.656 -11.84,8.907 -26.73,13.371 -44.67,13.371 -20.62,0 -37.87,-4.953 -51.72,-14.835 -13.84,-9.883 -23.58,-23.157 -29.2,-39.805 -5.6,-16.668 -8.41,-33.848 -8.41,-51.531 0,-22.832 3.32,-42.754 9.98,-59.778 6.64,-17.031 16.99,-29.746 31.02,-38.164 14.04,-8.429 29.23,-12.637 45.58,-12.637 19.9,0 36.74,5.735 50.53,17.208 13.78,11.464 23.12,28.496 28,51.074" /><path
         id="path28"
         style="fill:#24265d;fill-opacity:1;fill-rule:nonzero;stroke:none"
         d="m 2870,540 h 90.99 l -28.01,74.316 c -8.56,22.579 -14.9,41.133 -19.04,55.657 -3.42,-17.207 -8.25,-34.297 -14.46,-51.262 z m -77.43,-110.203 103.06,268.367 h 38.27 l 109.82,-268.367 h -40.45 l -31.31,81.277 h -112.21 l -29.48,-81.277 h -37.7" /><path
         id="path30"
         style="fill:#24265d;fill-opacity:1;fill-rule:nonzero;stroke:none"
         d="m 3163.84,570.566 h 69.37 c 22.95,0 39.25,4.27 48.89,12.813 9.65,8.547 14.47,20.566 14.47,36.062 0,11.235 -2.85,20.84 -8.51,28.84 -5.69,7.989 -13.16,13.274 -22.43,15.828 -5.99,1.594 -17.03,2.383 -33.14,2.383 h -68.65 z m -35.51,-140.769 v 268.367 h 101.23 c 17.81,0 31.43,-0.859 40.82,-2.566 13.18,-2.2 24.22,-6.379 33.14,-12.539 8.91,-6.164 16.08,-14.797 21.51,-25.903 5.43,-11.101 8.14,-23.308 8.14,-36.609 0,-22.82 -7.26,-42.141 -21.77,-57.949 -14.53,-15.801 -40.77,-23.703 -78.72,-23.703 h -68.84 V 429.797 h -35.51" /><path
         id="path32"
         style="fill:#24265d;fill-opacity:1;fill-rule:nonzero;stroke:none"
         d="m 3440.67,429.797 v 268.367 h 35.51 V 429.797 h -35.51" /><path
         id="path34"
         style="fill:#24265d;fill-opacity:1;fill-rule:nonzero;stroke:none"
         d="m 3663.31,429.797 v 236.695 h -88.42 v 31.672 h 212.72 v -31.672 h -88.79 V 429.797 h -35.51" /><path
         id="path36"
         style="fill:#24265d;fill-opacity:1;fill-rule:nonzero;stroke:none"
         d="m 3900.4,540 h 91 l -28.02,74.316 c -8.55,22.579 -14.89,41.133 -19.03,55.657 -3.42,-17.207 -8.25,-34.297 -14.47,-51.262 z m -77.42,-110.203 103.06,268.367 h 38.26 l 109.83,-268.367 h -40.45 l -31.31,81.277 h -112.21 l -29.49,-81.277 h -37.69" /><path
         id="path38"
         style="fill:#24265d;fill-opacity:1;fill-rule:nonzero;stroke:none"
         d="m 4157.28,429.797 v 268.367 h 35.51 V 461.465 h 132.18 v -31.668 h -167.69" /><path
         id="path40"
         style="fill:#24265d;fill-opacity:1;fill-rule:nonzero;stroke:none"
         d="m 463.461,612.406 v 85.758 h -83.109 v -28.867 l 83.109,-56.891" /><path
         id="path42"
         style="fill:#24265d;fill-opacity:1;fill-rule:nonzero;stroke:none"
         d="m 380.352,467.102 v -37.305 h 83.109 v 94.187 l -83.109,-56.882" /><path
         id="path44"
         style="fill:#51ade5;fill-opacity:1;fill-rule:nonzero;stroke:none"
         d="M 380.352,495.039 V 641.348 L 487.211,568.191 Z" /></g></g></svg>