<svg width="566" height="110" viewBox="0 0 566 110" fill="none" xmlns="http://www.w3.org/2000/svg">
<path d="M295.44 96.326C292.612 96.326 291.057 95.0967 290.746 92.6243L278.838 20.3868C278.779 19.931 278.72 19.5995 278.72 19.3785C278.72 17.0719 280.038 15.8978 282.748 15.8426H287.68C290.331 15.8426 291.827 17.1271 292.256 19.6547L300.861 78.2045H301.098L309.761 19.6547C310.176 17.1271 311.687 15.8426 314.337 15.8426H318.01C320.72 15.8426 322.098 17.0166 322.098 19.3232C322.098 19.5442 322.039 19.8895 321.979 20.3315L310.013 92.5691C309.717 95.0415 308.147 96.2707 305.318 96.2707H295.455V96.326H295.44Z" fill="#F2F1EF"/>
<path d="M345.171 97.3895C338.67 97.3895 333.753 95.6492 330.317 92.2238C326.896 88.7984 325.208 83.9227 325.208 77.6382V34.4614C325.208 28.1768 326.896 23.3011 330.317 19.8757C333.738 16.4503 338.67 14.71 345.171 14.71C351.673 14.71 356.59 16.4503 360.026 19.8757C363.447 23.3011 365.135 28.1768 365.135 34.4614V38.9503C365.135 41.6437 363.698 42.9835 360.87 42.9835H356.664C353.776 42.9835 352.339 41.6437 352.339 38.9503V33.6741C352.339 28.6879 350.118 26.2155 345.601 26.2155C341.084 26.2155 338.862 28.6879 338.862 33.6741V78.5912C338.862 83.4669 341.143 85.9393 345.66 85.9393C350.177 85.9393 352.458 83.4669 352.458 78.5912V70.2901C352.458 67.5967 353.894 66.2569 356.782 66.2569H360.988C363.876 66.2569 365.313 67.5967 365.254 70.2901V77.6382C365.254 83.9227 363.565 88.7984 360.144 92.2238C356.723 95.6492 351.791 97.3895 345.29 97.3895H345.171Z" fill="#F2F1EF"/>
<path d="M388.12 92.2238V19.8895C388.12 17.1962 389.556 15.8564 392.444 15.8564H419.62C422.508 15.8564 423.945 17.1962 423.945 19.8895V23.3702C423.945 26.0636 422.508 27.4033 419.62 27.3481H401.641V49.779H414.807C417.695 49.779 419.131 51.1188 419.131 53.7569V57.2376C419.131 59.931 417.695 61.2707 414.807 61.2155H401.641V92.2238C401.641 94.9172 400.205 96.2569 397.376 96.2569H392.444C389.556 96.2569 388.12 94.9172 388.12 92.2238Z" fill="#F2F1EF"/>
<path d="M447.714 97.4448C441.154 97.4448 436.163 95.7044 432.742 92.2238C429.321 88.7431 427.573 83.7569 427.573 77.2514V19.9448C427.573 17.2514 429.01 15.9116 431.838 15.9116H436.77C439.658 15.9116 441.094 17.2514 441.094 19.9448V78.163C441.094 83.384 443.375 85.9531 447.951 85.9531C452.527 85.9531 454.808 83.3149 454.808 78.1078V19.8895C454.808 17.1962 456.245 15.8564 459.133 15.8564H463.576C466.463 15.8564 467.9 17.1962 467.9 19.8895V77.21C467.9 83.7155 466.152 88.7017 462.672 92.1824C459.192 95.663 454.201 97.4033 447.64 97.4033L447.699 97.4586L447.714 97.4448Z" fill="#F2F1EF"/>
<path d="M475.024 92.2238V19.8895C475.024 17.1962 476.46 15.8564 479.348 15.8564H488.189C490.84 15.8564 492.455 17.0304 493.003 19.3371L505.206 64.0332H505.443V19.8895C505.443 17.1962 506.879 15.8564 509.767 15.8564H513.188C516.076 15.8564 517.513 17.1962 517.513 19.8895V92.2376C517.513 94.931 516.076 96.2707 513.188 96.2707H507.413C504.762 96.2707 503.147 95.152 502.599 92.8453L487.33 37.5415H487.094V92.2238C487.094 94.9172 485.657 96.2569 482.769 96.2569H479.348C476.46 96.2569 475.024 94.9172 475.024 92.2238Z" fill="#F2F1EF"/>
<path d="M525.125 19.8895C525.125 17.1962 526.562 15.8564 529.449 15.8564H545.799C559.276 15.8564 566 22.4724 566 35.7597V76.4227C566 89.6547 559.262 96.2707 545.799 96.2707H529.449C526.562 96.2707 525.125 94.931 525.125 92.2376V19.8895ZM545.562 84.7652C550.198 84.7652 552.479 82.1824 552.479 76.9752V35.1382C552.479 29.9172 550.198 27.3481 545.562 27.3481H538.646V84.779H545.562V84.7652Z" fill="#F2F1EF"/>
<path d="M20.008 15.442H4.33926C1.45136 15.442 0 16.7956 0 19.4889V91.9751C0 94.6685 1.45136 96.0221 4.33926 96.0221H9.28573C12.1144 96.0221 13.5658 94.6685 13.5658 91.9751V63.2044H20.008C33.4997 63.2044 40.253 56.5746 40.253 43.3149V35.3867C40.253 22.0718 33.4997 15.442 20.008 15.442ZM26.5687 44.047C26.5687 46.7956 26.0208 48.7707 24.9397 49.9448C23.8585 51.1188 22.1702 51.6851 19.934 51.6851L13.5509 51.7403V26.9613H19.9932C22.2295 26.9613 23.8437 27.5276 24.9397 28.6464C26.0208 29.7652 26.5687 31.7403 26.5687 34.4889V44.047Z" fill="#F2F1EF"/>
<path d="M79.1731 84.5028H61.1644V19.4889C61.2236 16.7956 59.7723 15.442 56.8843 15.442H51.9379C49.05 15.442 47.5986 16.7956 47.5986 19.4889V91.9751C47.5986 94.6685 49.05 96.0221 51.9379 96.0221H79.1731C82.061 96.0221 83.5123 94.6685 83.5123 91.9751V88.5497C83.5123 85.8564 82.061 84.5028 79.1731 84.5028Z" fill="#F2F1EF"/>
<path d="M119.959 19.1575C119.604 16.6851 118.093 15.442 115.442 15.442H104.957C102.306 15.442 100.795 16.6851 100.381 19.1575L87.4221 91.5331C87.3629 92.0442 87.3036 92.3757 87.3036 92.5967C87.2444 94.9033 88.5625 96.0221 91.2875 96.0221H95.1972C98.0259 96.0221 99.5957 94.7928 99.8919 92.3066L101.699 80.221H117.664V80L119.47 92.3066C119.767 94.779 121.336 96.0221 124.165 96.0221H128.978C131.689 96.0221 133.081 94.9033 133.081 92.5967C133.021 92.3204 132.962 91.9751 132.903 91.5331L119.944 19.1575H119.959ZM103.269 69.337L109.415 29.5028H109.652L115.975 69.337H103.269Z" fill="#F2F1EF"/>
<path d="M178.221 15.442H174.785C171.897 15.442 170.446 16.7956 170.446 19.4889V63.7155H170.209L157.976 18.9365C157.428 16.6298 155.814 15.4558 153.163 15.4558H144.306C141.419 15.4558 139.967 16.8094 139.967 19.5028V91.9889C139.967 94.6823 141.419 96.0359 144.306 96.0359H147.742C150.63 96.0359 152.082 94.6823 152.082 91.9889V37.1823H152.319L167.617 92.5829C168.165 94.8895 169.779 96.0083 172.43 96.0083H178.221C181.109 96.0083 182.56 94.6547 182.56 91.9613V19.4889C182.56 16.7956 181.109 15.442 178.221 15.442Z" fill="#F2F1EF"/>
<path d="M233.461 57.9558H229.848V72.6519H234.498C235.89 72.6519 236.927 72.279 237.608 71.5884C238.289 70.884 238.645 69.6547 238.645 67.9144V63.7431C238.645 61.5746 238.245 60.0691 237.43 59.2403C236.601 58.4116 235.283 57.9696 233.461 57.9696V57.9558Z" fill="#F2F1EF"/>
<path d="M236.601 49.9309C237.386 49.1575 237.786 47.8591 237.786 46.0497V43.384C237.786 40.1105 236.423 38.4807 233.698 38.4392H229.788V51.0912H232.973C234.587 51.0912 235.801 50.6906 236.586 49.9171L236.601 49.9309Z" fill="#F2F1EF"/>
<path d="M233.698 0C220.34 0 209.529 10.0967 209.529 22.5414V87.4586C209.529 99.9171 220.355 110 233.698 110C247.057 110 257.868 99.9033 257.868 87.4586V22.5414C257.868 10.0829 247.042 0 233.698 0ZM246.672 68.1354C246.672 71.837 245.635 74.6409 243.562 76.5884C242.258 77.8039 240.585 78.6326 238.541 79.0884V80.7873C238.541 82.0028 237.475 82.9972 236.171 82.9972C234.868 82.9972 233.802 82.0028 233.802 80.7873V79.5028H229.803V80.7873C229.803 82.0028 228.737 82.9972 227.434 82.9972C226.13 82.9972 225.064 82.0028 225.064 80.7873V79.5028H224.324C222.606 79.5028 221.747 78.7017 221.747 77.0994V34.0193C221.747 32.4171 222.606 31.616 224.324 31.616H225.064V29.2265C225.064 28.011 226.13 27.0166 227.434 27.0166C228.737 27.0166 229.803 28.011 229.803 29.2265V31.616H233.802V29.2265C233.802 28.011 234.868 27.0166 236.171 27.0166C237.475 27.0166 238.541 28.011 238.541 29.2265V31.8094C238.541 31.9061 238.526 31.9889 238.511 32.0856C240.392 32.5276 241.918 33.2597 243.028 34.3094C244.924 36.1188 245.887 38.8812 245.887 42.6243V44.5304C245.887 49.4337 244.124 52.5829 240.659 53.9088V54.047C244.672 55.3177 246.672 58.6602 246.672 64.0331V68.1354Z" fill="#F2F1EF"/>
</svg>
