<?xml version="1.0" encoding="UTF-8"?>
<svg xmlns="http://www.w3.org/2000/svg" viewBox="0 0 890.38 890.86">
    <style>
    path {
      fill: #ffffff;
      stroke: none;
      fill-rule: evenodd;
      }
    </style>
  <!-- Lightning Bolt -->
  <path d="M678.25,272.2c.76,0,1.14.83.6,1.31l-19.66,17.72-1.75,1.56-26.36,23.75h-139.21s-96.98,87.36-96.98,87.36c-.54.48-.16,1.31.6,1.31h135.08c.76,0,1.14.83.6,1.31-12.31,11.08-33.48,30.16-46,41.45-49.07,44.16-100.38,90.44-149.43,134.6-17.13,15.44-42.3,38.11-59.4,53.53,0,0-11.21,10.09-11.21,10.09-.54.48-1.46.14-1.46-.54v-60.85c23.86-21.44,58.39-52.62,82.28-74.11,12.37-11.17,53.34-48.04,66.4-59.82.54-.48.16-1.31-.6-1.31h-135.1c-.76,0-1.14-.83-.6-1.31l96.98-87.36,7.73-6.96c6.54-5.87,33.92-30.57,40.04-36.07.54-.48.16-1.31-.6-1.31h-135.1c-.76,0-1.14-.83-.6-1.31l26.66-24.01,1.73-1.56,19.38-17.46h345.98Z"/>
  <!-- TUSCANY -->
  <path d="M353.38,866.39c-1.66-.48-3.19-.92-4.58-1.32-1.39-.4-2.68-.77-3.87-1.11l-11.66-3.36,15.96-55.42c.62-2.14,1.19-4.12,1.71-5.95.53-1.82,1.02-3.53,1.47-5.11.46-1.59.95-3.16,1.49-4.72l-14.87-4.28c-.46,1.58-.89,3.18-1.31,4.77-.42,1.6-.89,3.31-1.41,5.13-.52,1.82-1.08,3.77-1.68,5.83l-16,55.54-12.37-3.56c-1.59-.46-3.37-.97-5.35-1.54-1.98-.57-4.22-1.22-6.72-1.94-2.5-.72-5.24-1.55-8.23-2.5l-3.84,13.32,80.04,23.05,3.84-13.32c-2.62-.75-4.96-1.41-7.03-1.96-2.07-.55-3.94-1.07-5.61-1.55Z"/>
  <path d="M270.18,756.05c-3.61-3.86-8.58-7.81-14.91-11.84-5.08-3.23-9.72-5.7-13.92-7.4-4.2-1.7-8.09-2.61-11.68-2.74-3.59-.13-6.95.54-10.09,2.01-3.14,1.47-6.19,3.74-9.16,6.79-2.97,3.05-5.94,6.91-8.91,11.57-1.51,2.37-2.92,4.59-4.25,6.68-1.33,2.09-2.58,4.08-3.74,5.98-1.16,1.9-2.26,3.67-3.3,5.31-1.04,1.63-2,3.15-2.89,4.54l-5.05,7.93c-1.77,2.78-3.38,5.31-4.82,7.57-1.44,2.26-2.75,4.24-3.93,5.94l12.95,8.24c1.13-1.92,2.41-4.02,3.85-6.28,1.44-2.26,2.96-4.65,4.55-7.15l19.01-29.86c2.61-4.11,5.11-7.29,7.47-9.55,2.37-2.26,4.82-3.68,7.34-4.27,2.53-.59,5.35-.34,8.46.77,3.11,1.1,6.69,2.94,10.73,5.51,4.04,2.57,7.21,5.03,9.53,7.39,2.31,2.35,3.74,4.8,4.27,7.34.53,2.54.28,5.36-.77,8.46-1.04,3.1-2.87,6.7-5.49,10.81l-18.81,29.55c-1.64,2.57-3.19,5.01-4.65,7.31-1.46,2.3-2.85,4.4-4.16,6.3l12.95,8.24c1.08-1.86,2.33-3.9,3.75-6.12,1.42-2.23,3.04-4.77,4.85-7.62l4.99-7.83c.89-1.39,1.85-2.91,2.89-4.54,1.04-1.64,2.17-3.36,3.38-5.19,1.21-1.82,2.49-3.8,3.84-5.92,1.35-2.12,2.78-4.37,4.29-6.73,3.72-5.85,6.31-11.17,7.75-15.97,1.44-4.8,1.65-9.24.63-13.32-1.02-4.08-3.34-8.04-6.95-11.9Z"/>
  <!-- LIGHTNING -->
  <path d="M175.18,713.92l-2.33,2.04,10.14,11.02,1.77-1.55c3.17-2.77,5.65-5.44,7.46-8.01,1.81-2.57,2.86-5.19,3.15-7.86.29-2.67-.15-5.59-1.35-8.77-1.19-3.18-3.17-6.69-5.92-10.52-2.76-3.84-6.34-8.27-10.74-13.3-3.97-4.53-7.6-8.24-10.88-11.12-3.29-2.88-6.37-4.95-9.24-6.23-2.87-1.27-5.62-1.88-8.26-1.82-2.63.06-5.24.78-7.82,2.16-2.58,1.38-5.29,3.32-8.15,5.82-3.04,2.66-5.36,5.38-6.94,8.14-1.59,2.76-2.3,5.86-2.15,9.29.15,3.43,1.29,7.42,3.41,11.98,2.13,4.56,5.34,10.05,9.65,16.47,3.31,4.78,5.78,8.7,7.42,11.76,1.64,3.06,2.66,5.57,3.05,7.53.4,1.96.23,3.61-.51,4.97-.73,1.35-1.91,2.74-3.52,4.15-1.43,1.25-2.87,2.1-4.34,2.56-1.46.46-3.04.41-4.73-.14-1.69-.55-3.63-1.7-5.82-3.46-2.19-1.75-4.73-4.27-7.61-7.57-3.04-3.48-5.41-6.5-7.12-9.07-1.7-2.57-2.8-4.79-3.29-6.66-.49-1.87-.4-3.59.25-5.16.66-1.57,1.8-3.05,3.41-4.47l2.14-1.88-10.06-10.93-1.68,1.47c-2.67,2.34-4.81,4.65-6.43,6.94-1.61,2.29-2.62,4.71-3.02,7.25-.4,2.55-.1,5.33.89,8.35,1,3.02,2.74,6.38,5.21,10.08,2.47,3.7,5.78,7.91,9.91,12.63,4.68,5.34,8.95,9.47,12.82,12.38,3.87,2.92,7.51,4.72,10.91,5.42,3.4.69,6.71.43,9.92-.79,3.21-1.22,6.49-3.3,9.84-6.23,3.23-2.83,5.62-5.58,7.17-8.25,1.55-2.67,2.2-5.63,1.95-8.86-.25-3.23-1.45-7.04-3.58-11.42-2.14-4.38-5.28-9.63-9.44-15.76-3.3-4.9-5.82-8.99-7.56-12.3-1.74-3.3-2.79-6.03-3.14-8.19-.35-2.16-.19-3.95.49-5.36.68-1.42,1.83-2.83,3.44-4.25,1.61-1.41,3.17-2.39,4.67-2.94,1.5-.54,3.12-.51,4.86.1,1.74.61,3.73,1.91,5.97,3.9,2.24,1.99,4.93,4.79,8.08,8.39,3.59,4.1,6.39,7.54,8.39,10.34,2.01,2.79,3.3,5.2,3.86,7.23.57,2.03.43,3.84-.41,5.45-.84,1.61-2.25,3.29-4.24,5.03Z"/>
  <!-- SUMMIT -->
  <!-- First U -->
  <path d="M889.43,441.15c-.83-4.78-2.25-8.58-4.25-11.41-2.01-2.84-4.6-4.91-7.78-6.21-3.18-1.31-6.99-2.04-11.44-2.19-4.29-.15-7.91.22-10.87,1.11-2.96.89-5.46,2.6-7.48,5.13-2.03,2.53-3.76,6.13-5.2,10.78-1.44,4.66-2.74,10.64-3.9,17.95-.94,5.83-1.91,10.54-2.9,14.14-.99,3.6-2.1,6.31-3.31,8.12-1.22,1.82-2.56,3.01-4.02,3.58-1.47.57-3.27.82-5.41.74-2.15-.07-3.95-.43-5.41-1.05-1.47-.63-2.62-1.76-3.48-3.4-.85-1.64-1.41-3.95-1.68-6.93-.27-2.98-.32-6.86-.16-11.65.19-5.44.5-9.87.95-13.28.45-3.41,1.16-6.05,2.13-7.91.97-1.87,2.31-3.1,4.03-3.7,1.71-.6,3.89-.86,6.53-.77l3.09.11.14-14.98-2.35-.08c-4.21-.14-7.85.1-10.92.74-3.08.64-5.64,1.83-7.68,3.58-2.04,1.74-3.72,4.19-5.02,7.32-1.31,3.13-2.26,7.04-2.88,11.73-.61,4.69-1.04,10.37-1.26,17.05-.21,6.02-.09,11.2.33,15.55.43,4.35,1.25,7.97,2.48,10.86,1.22,2.89,2.81,5.21,4.78,6.97,1.96,1.76,4.36,3.02,7.18,3.78,2.82.76,6.13,1.2,9.92,1.33,4.04.14,7.58-.26,10.63-1.18,3.04-.93,5.68-2.7,7.92-5.3,2.24-2.61,4.14-6.3,5.7-11.07,1.57-4.78,2.98-10.98,4.23-18.62.86-5.75,1.73-10.3,2.63-13.66.9-3.36,1.87-5.88,2.92-7.58s2.3-2.79,3.76-3.28c1.46-.49,3.26-.69,5.41-.62,1.9.06,3.53.43,4.92,1.1,1.38.67,2.5,1.78,3.35,3.33.85,1.56,1.48,3.72,1.88,6.5.4,2.78.53,6.35.38,10.72-.16,4.62-.5,8.44-1.01,11.48-.52,3.04-1.24,5.41-2.16,7.11-.93,1.7-2.16,2.9-3.71,3.59-1.55.69-3.4,1-5.54.92l-2.85-.1-.14,14.86,2.23.08c3.55.12,6.69-.1,9.44-.67,2.74-.57,5.13-1.64,7.17-3.22,2.04-1.58,3.72-3.82,5.06-6.7,1.34-2.89,2.37-6.52,3.1-10.92.73-4.39,1.2-9.72,1.41-15.99.24-7.09-.05-13.03-.88-17.8Z"/>
  <!-- First M -->
  <path d="M863.36,542.45l-8.81-2.93c-1.57-.52-3.27-1.09-5.11-1.7-1.84-.61-3.79-1.28-5.85-2.01-2.06-.73-4.29-1.49-6.68-2.28-2.39-.79-4.91-1.63-7.58-2.52-6.58-2.18-12.37-3.39-17.38-3.62-5.01-.23-9.37.65-13.07,2.64-3.7,1.99-6.99,5.2-9.85,9.64-2.86,4.44-5.48,10.22-7.85,17.35-1.9,5.72-3.16,10.82-3.78,15.31-.62,4.49-.56,8.49.19,12,.75,3.51,2.22,6.61,4.41,9.29,2.19,2.68,5.13,5.1,8.81,7.23Z M816.09,663.74l-43.72-33.29c-2.69-2.05-5.01-3.81-6.94-5.29-1.94-1.48-4.03-3.12-6.28-4.93l-9.15,12.01c2.62,2,5.54,4.19,8.75,6.59,3.21,2.39,6.34,4.89,9.39,7.07,2.3,1.75,5.73,3.77,8.03,6.11,2.3,1.75,4.66,3.55,7.09,5.4,2.43,1.85,4.89,3.69,7.37,5.54,2.49,1.84,4.91,3.63,7.26,5.38,2.36,1.74,4.6,3.42,6.73,5.05,1.67,1.27,3.24,2.45,4.7,3.53l-1.28,1.67c-.5-.16-.99-.31-1.5-.48-3.26-1.03-6.69-2.14-10.3-3.33-3.61-1.19-7.35-2.4-11.23-3.65-3.88-1.24-7.75-2.46-11.62-3.64l-40.73-12.5-9.15,12.02,23.36,35.52c2.24,3.46,4.49,6.84,6.76,10.12,2.27,3.28,4.46,6.51,6.56,9.66,2.11,3.16,4.12,6.17,6.04,9.03.26.39.51.76.76,1.15Z"/>
  <!-- Second M -->
  <path d="M715.12,780.56l-29.23-46.54c-1.8-2.87-3.35-5.33-4.64-7.39-1.3-2.06-2.67-4.34-4.34-6.83l-12.79,8.03c1.75,2.79,3.71,5.87,5.88,9.24,2.16,3.37,4.27,6.68,6.31,9.93,2.04,3.25,3.83,6.1,5.37,8.54,1.54,2.45,3.12,4.96,4.74,7.55,1.62,2.58,3.28,5.18,4.96,7.78,1.68,2.6,3.32,5.13,4.82,7.59,1.59,2.46,3.1,4.82,4.53,7.09,1.12,1.78,2.17,3.43,3.16,4.96l-1.78,1.12c-.41-.32-.82-.64-1.24-.97-2.69-2.11-5.51-4.36-8.47-6.74-2.96-2.38-6.03-4.83-9.23-7.36-3.19-2.53-6.39-5.02-9.6-7.49l-33.73-26.02-12.79,8.03,9.38,41.46c.88,4.03,1.8,7.98,2.77,11.85.97,3.87,1.89,7.66,2.75,11.36.86,3.7,1.69,7.22,2.48,10.58.11.46.21.89.31,1.34l-1.81,1.13c-1.18-1.95-2.44-4.02-3.79-6.24-1.54-2.54-3.14-5.16-4.8-7.87-1.65-2.71-3.27-5.36-4.83-7.93-1.57-2.57-3.01-4.91-4.33-7-1.32-2.1-2.46-3.91-3.42-5.45-1.76-2.8-3.7-5.89-5.83-9.28-2.13-3.39-4.25-6.76-6.35-10.11-2.11-3.35-4-6.45-5.69-9.29l-13.1,8.23c1.39,2.05,2.8,4.23,4.25,6.54,1.45,2.31,3.07,4.89,4.89,7.76l29.43,46.85c1.67,2.65,3.16,5.03,4.48,7.13,1.32,2.1,2.55,4.14,3.71,6.14l21.59-13.56-9.18-39.98c-1.01-4.24-2.02-8.5-3.05-12.77-1.03-4.28-2.04-8.37-3.03-12.27-.77-3.05-1.49-5.9-2.15-8.57,2.1,1.77,4.35,3.66,6.76,5.68,3.09,2.59,6.31,5.27,9.65,8.04,3.35,2.77,6.71,5.53,10.09,8.28l32.2,25.67,23.16-14.55c-1.34-1.98-2.69-4.06-4.05-6.22-1.36-2.17-2.92-4.65-4.67-7.44Z"/>
  <!-- IT -->
  <path d="M584.17,849.83l-17.03-52.64c-.69-2.12-1.32-4.08-1.91-5.89-.58-1.81-1.13-3.49-1.64-5.06-.51-1.57-.98-3.15-1.41-4.75l-14.96,4.84c.51,1.57,1.04,3.13,1.58,4.69.55,1.56,1.11,3.24,1.7,5.04.58,1.81,1.21,3.73,1.87,5.77l16.99,52.52c1.02,3.14,1.92,5.95,2.72,8.42.8,2.47,1.53,4.86,2.19,7.16l14.96-4.84c-.81-2.25-1.62-4.59-2.4-7.03s-1.68-5.18-2.67-8.24Z"/>
  <path d="M526.55,868.86c-2.13.27-4.05.51-5.77.7-1.72.19-3.3.36-4.74.52-1.43.16-2.77.3-4,.44l-12.06,1.32-6.29-57.33c-.24-2.22-.47-4.27-.67-6.15-.21-1.89-.4-3.65-.58-5.29-.18-1.64-.32-3.29-.42-4.93l-15.38,1.69c.18,1.64.38,3.28.6,4.91.22,1.64.43,3.4.64,5.28.21,1.89.43,3.89.66,6.03l6.3,57.46-12.8,1.4c-1.64.18-3.49.38-5.54.61-2.05.22-4.37.48-6.95.76-2.58.28-5.44.55-8.56.81l1.51,13.78,82.8-9.08-1.51-13.78c-2.71.3-5.12.58-7.25.86Z"/>
</svg>